<svg id="Layer_1" data-name="Layer 1" xmlns="http://www.w3.org/2000/svg" viewBox="0 0 131.782 29.917"><defs><style>.cls-1{fill:#f25c05;}.cls-2{fill:#272556;}</style></defs><title>logo</title><path class="cls-1" d="M13.087,3.88V0h3.865V3.88H13.087Zm0,17.415V6.01h3.865V21.3H13.087v0Z" transform="translate(0.003)"/><path class="cls-1" d="M22.263,1.605V5.728a11.709,11.709,0,0,1-7.3,20.746A11.709,11.709,0,0,1,7.7,5.7V1.589a15.142,15.142,0,0,0,7.265,28.328A15.143,15.143,0,0,0,22.263,1.605Z" transform="translate(0.003)"/><path class="cls-2" d="M63.161,5.06V24.934H60.124L49.165,11.476V24.934H45.5V5.06h3.038L59.5,18.518V5.06h3.662Z" transform="translate(0.003)"/><path class="cls-2" d="M81.388,20.334H71.451l-1.959,4.6h-3.8L74.631,5.06h3.634l8.972,19.874H83.375Zm-1.221-2.9L76.42,8.75,72.7,17.438h7.467Z" transform="translate(0.003)"/><path class="cls-2" d="M108.018,24.934L107.989,11.76l-6.53,10.9H99.813L93.283,11.93v13H89.763V5.06H92.8l7.893,13.173L108.443,5.06h3.037l0.029,19.874h-3.492Z" transform="translate(0.003)"/><path class="cls-2" d="M131.779,21.839v3.095h-14.9V5.06h14.507V8.154H120.565v5.167h9.6v3.038h-9.6v5.479h11.214Z" transform="translate(0.003)"/></svg>